<svg xmlns="http://www.w3.org/2000/svg" viewBox="0 0 512 512" role="img" aria-label="Bell with live pulse">
  <defs>
    <radialGradient id="bell-bg" cx="50%" cy="30%" r="80%">
      <stop offset="0%" stop-color="#5c068c"/>
      <stop offset="100%" stop-color="#120218"/>
    </radialGradient>
    <linearGradient id="bell-fill" x1="0.5" y1="0" x2="0.5" y2="1">
      <stop offset="0%" stop-color="#9b4dca"/>
      <stop offset="45%" stop-color="#702082"/>
      <stop offset="100%" stop-color="#480a5c"/>
    </linearGradient>
    <linearGradient id="bell-pulse" x1="0" y1="0" x2="1" y2="0">
      <stop offset="0%" stop-color="#f8cb6f"/>
      <stop offset="100%" stop-color="#ffc72c"/>
    </linearGradient>
  </defs>
  <rect width="512" height="512" rx="112" fill="url(#bell-bg)"/>
  <circle cx="256" cy="268" r="168" fill="none" stroke="#7a3eb1" stroke-width="6" opacity="0.22"/>
  <circle cx="256" cy="268" r="132" fill="none" stroke="#9b4dca" stroke-width="4" opacity="0.32"/>
  <path
    fill="url(#bell-fill)"
    d="M256 88 C172 88 132 168 132 244 L108 312 H404 L380 244 C380 168 340 88 256 88 Z"
  />
  <rect x="208" y="312" width="96" height="20" rx="10" fill="#3d1a4a"/>
  <circle cx="256" cy="356" r="26" fill="#ffc72c"/>
  <circle cx="256" cy="356" r="12" fill="#5c068c"/>
  <path
    fill="none"
    stroke="url(#bell-pulse)"
    stroke-width="14"
    stroke-linecap="round"
    stroke-linejoin="round"
    d="M128 248 L188 248 L220 178 L256 278 L292 198 L324 248 L384 248"
  />
  <circle cx="372" cy="132" r="34" fill="#3d9e47"/>
  <circle cx="372" cy="132" r="14" fill="#f5f5f5"/>
</svg>
