<svg xmlns="http://www.w3.org/2000/svg" viewBox="0 0 512 512" role="img" aria-label="Taco shell with live pulse">
  <defs>
    <radialGradient id="shell-bg" cx="50%" cy="35%" r="75%">
      <stop offset="0%" stop-color="#702082"/>
      <stop offset="100%" stop-color="#0d0212"/>
    </radialGradient>
    <linearGradient id="shell" x1="0.5" y1="0" x2="0.5" y2="1">
      <stop offset="0%" stop-color="#ffc72c"/>
      <stop offset="55%" stop-color="#e8a820"/>
      <stop offset="100%" stop-color="#c4880a"/>
    </linearGradient>
    <linearGradient id="shell-pulse" x1="0" y1="0" x2="1" y2="0">
      <stop offset="0%" stop-color="#f5f5f5"/>
      <stop offset="100%" stop-color="#ffe082"/>
    </linearGradient>
  </defs>
  <rect width="512" height="512" rx="112" fill="url(#shell-bg)"/>
  <circle cx="256" cy="280" r="172" fill="none" stroke="#9b4dca" stroke-width="7" opacity="0.3"/>
  <circle cx="256" cy="280" r="136" fill="none" stroke="#7a3eb1" stroke-width="4" opacity="0.45"/>
  <path
    fill="url(#shell)"
    d="M96 300 C96 196 168 120 256 120 C344 120 416 196 416 300 C416 316 404 328 388 328 H124 C108 328 96 316 96 300 Z"
  />
  <path
    fill="none"
    stroke="#5c068c"
    stroke-width="8"
    stroke-linecap="round"
    d="M128 292 C168 248 212 228 256 228 C300 228 344 248 384 292"
  />
  <circle cx="256" cy="280" r="11" fill="#702082" stroke="#ffc72c" stroke-width="4"/>
  <path
    fill="none"
    stroke="url(#shell-pulse)"
    stroke-width="13"
    stroke-linecap="round"
    stroke-linejoin="round"
    d="M104 248 L168 248 L204 168 L256 312 L308 192 L348 248 L408 248"
  />
</svg>
