<svg xmlns="http://www.w3.org/2000/svg" viewBox="0 0 512 512" role="img" aria-label="TBA Dashboard">
  <defs>
    <radialGradient id="neon-bg" cx="50%" cy="50%" r="70%">
      <stop offset="0%" stop-color="#2d0a3d"/>
      <stop offset="100%" stop-color="#000000"/>
    </radialGradient>
    <linearGradient id="neon-purple" x1="0" y1="0" x2="1" y2="1">
      <stop offset="0%" stop-color="#e040fb"/>
      <stop offset="100%" stop-color="#702082"/>
    </linearGradient>
    <filter id="neon-blur" x="-40%" y="-40%" width="180%" height="180%">
      <feGaussianBlur stdDeviation="10"/>
    </filter>
  </defs>
  <rect width="512" height="512" rx="112" fill="url(#neon-bg)"/>
  <g opacity="0.55" filter="url(#neon-blur)">
    <circle cx="256" cy="256" r="178" fill="none" stroke="#702082" stroke-width="14"/>
    <circle cx="256" cy="256" r="142" fill="none" stroke="#9b4dca" stroke-width="10"/>
  </g>
  <circle cx="256" cy="256" r="178" fill="none" stroke="url(#neon-purple)" stroke-width="5" opacity="0.5"/>
  <circle cx="256" cy="256" r="142" fill="none" stroke="#7a3eb1" stroke-width="3" opacity="0.65"/>
  <path
    fill="none"
    stroke="#ffc72c"
    stroke-width="18"
    stroke-linecap="round"
    stroke-linejoin="round"
    opacity="0.35"
    filter="url(#neon-blur)"
    d="M96 268 L168 268 L208 168 L256 332 L304 204 L352 268 L416 268"
  />
  <path
    fill="none"
    stroke="#ffc72c"
    stroke-width="14"
    stroke-linecap="round"
    stroke-linejoin="round"
    d="M96 268 L168 268 L208 168 L256 332 L304 204 L352 268 L416 268"
  />
  <circle cx="256" cy="332" r="10" fill="#ff4081"/>
  <circle cx="256" cy="256" r="12" fill="#ffc72c"/>
</svg>
